<?xml version="1.0" encoding="UTF-8" standalone="no"?>
<!-- Created with Inkscape (http://www.inkscape.org/) -->

<svg
   xmlns:dc="http://purl.org/dc/elements/1.1/"
   xmlns:cc="http://creativecommons.org/ns#"
   xmlns:rdf="http://www.w3.org/1999/02/22-rdf-syntax-ns#"
   xmlns:svg="http://www.w3.org/2000/svg"
   xmlns="http://www.w3.org/2000/svg"
   xmlns:sodipodi="http://sodipodi.sourceforge.net/DTD/sodipodi-0.dtd"
   xmlns:inkscape="http://www.inkscape.org/namespaces/inkscape"
   width="300.00003"
   height="78.966133"
   id="svg4565"
   version="1.1"
   inkscape:version="0.48.4 r9939"
   sodipodi:docname="New document 16">
  <defs
     id="defs4567">
    <filter
       color-interpolation-filters="sRGB"
       inkscape:collect="always"
       id="filter4360">
      <feGaussianBlur
         inkscape:collect="always"
         stdDeviation="1.8026791"
         id="feGaussianBlur4362" />
    </filter>
  </defs>
  <sodipodi:namedview
     id="base"
     pagecolor="#ffffff"
     bordercolor="#666666"
     borderopacity="1.0"
     inkscape:pageopacity="0.0"
     inkscape:pageshadow="2"
     inkscape:zoom="1.4"
     inkscape:cx="187.13246"
     inkscape:cy="13.283316"
     inkscape:document-units="px"
     inkscape:current-layer="layer1"
     showgrid="false"
     fit-margin-top="0"
     fit-margin-left="0"
     fit-margin-right="0"
     fit-margin-bottom="0"
     inkscape:window-width="882"
     inkscape:window-height="622"
     inkscape:window-x="833"
     inkscape:window-y="709"
     inkscape:window-maximized="0" />
  <metadata
     id="metadata4570">
    <rdf:RDF>
      <cc:Work
         rdf:about="">
        <dc:format>image/svg+xml</dc:format>
        <dc:type
           rdf:resource="http://purl.org/dc/dcmitype/StillImage" />
        <dc:title></dc:title>
      </cc:Work>
    </rdf:RDF>
  </metadata>
  <g
     inkscape:label="Layer 1"
     inkscape:groupmode="layer"
     id="layer1"
     transform="translate(-229.99999,-412.87912)">
    <text
       sodipodi:linespacing="125%"
       id="text4504"
       y="472.74832"
       x="239.34703"
       style="font-size:60.50841141px;font-style:normal;font-variant:normal;font-weight:normal;font-stretch:normal;text-align:start;line-height:125%;letter-spacing:0px;word-spacing:0px;writing-mode:lr-tb;text-anchor:start;fill:#e5e3e3;fill-opacity:1;stroke:#f2f2f2;stroke-width:24.13038445;stroke-linecap:round;stroke-linejoin:round;stroke-miterlimit:4;stroke-opacity:1;stroke-dasharray:none;font-family:Keifont;-inkscape-font-specification:Keifont"
       xml:space="preserve"
       inkscape:export-filename="/home/max/prv-projects2/rescap/artwork/logo.png"
       inkscape:export-xdpi="90"
       inkscape:export-ydpi="90"><tspan
         y="472.74832"
         x="239.34703"
         id="tspan4506"
         sodipodi:role="line"
         style="stroke-width:24.13038445">シャシン</tspan></text>
    <text
       xml:space="preserve"
       style="font-size:16.0788269px;font-style:normal;font-variant:normal;font-weight:normal;font-stretch:normal;text-align:start;line-height:125%;letter-spacing:0px;word-spacing:0px;writing-mode:lr-tb;text-anchor:start;fill:#1f241c;fill-opacity:1;stroke:#f2f2f2;stroke-width:14.54973984;stroke-linecap:round;stroke-linejoin:round;stroke-miterlimit:4;stroke-opacity:1;stroke-dasharray:none;font-family:Keifont;-inkscape-font-specification:Keifont"
       x="460.76514"
       y="479.12296"
       id="text4508"
       sodipodi:linespacing="125%"
       inkscape:export-filename="/home/max/prv-projects2/rescap/artwork/logo.png"
       inkscape:export-xdpi="90"
       inkscape:export-ydpi="90"><tspan
         sodipodi:role="line"
         id="tspan4510"
         x="460.76514"
         y="479.12296"
         style="stroke-width:14.54973984;stroke-miterlimit:4;stroke-dasharray:none">shashin</tspan></text>
    <g
       style="font-size:16.0788269px;font-style:normal;font-variant:normal;font-weight:normal;font-stretch:normal;text-align:start;line-height:125%;letter-spacing:0px;word-spacing:0px;writing-mode:lr-tb;text-anchor:start;fill:#666666;fill-opacity:1;stroke:none;font-family:Keifont;-inkscape-font-specification:Keifont"
       id="text4512">
      <path
         d="m 464.65923,479.34275 c -0.59668,0 -1.21953,-0.11515 -1.86854,-0.34544 -0.63855,-0.24076 -1.18812,-0.5548 -1.64871,-0.94212 l 1.25616,-1.77432 c 0.82697,0.63855 1.6016,0.95782 2.3239,0.95782 0.72228,0 1.08343,-0.24076 1.08343,-0.72229 0,-0.0733 -0.0157,-0.14132 -0.0471,-0.20413 -0.0314,-0.0733 -0.0838,-0.14131 -0.15702,-0.20413 -0.0733,-0.0628 -0.14656,-0.11514 -0.21983,-0.15702 -0.0628,-0.0523 -0.16226,-0.10467 -0.29834,-0.15701 -0.12562,-0.0628 -0.23553,-0.10992 -0.32974,-0.14132 -0.0838,-0.0419 -0.20936,-0.0942 -0.37685,-0.15702 -0.16749,-0.0628 -0.29834,-0.11515 -0.39255,-0.15702 -1.59113,-0.63854 -2.3867,-1.53356 -2.3867,-2.68504 0,-0.86884 0.32451,-1.57019 0.97352,-2.10407 0.65949,-0.53385 1.51786,-0.80079 2.57513,-0.8008 1.12007,1e-5 2.20874,0.39256 3.26601,1.17765 l -1.27186,1.69582 c -0.7223,-0.51293 -1.35561,-0.76939 -1.89994,-0.7694 -0.64902,10e-6 -0.97353,0.21983 -0.97352,0.65948 -1e-5,0.0733 0.0157,0.14656 0.0471,0.21983 0.0314,0.0628 0.0785,0.12562 0.14132,0.18842 0.0733,0.0523 0.14132,0.0994 0.20413,0.14132 0.0733,0.0419 0.17272,0.089 0.29834,0.14132 0.13607,0.0523 0.24599,0.0994 0.32974,0.14132 0.0837,0.0314 0.20935,0.0785 0.37684,0.14131 0.16749,0.0523 0.29834,0.0942 0.39255,0.12562 0.33497,0.12562 0.62284,0.25647 0.86361,0.39255 0.25123,0.13609 0.50246,0.30881 0.7537,0.51816 0.25122,0.20937 0.44488,0.47107 0.58097,0.7851 0.13608,0.31405 0.20412,0.66472 0.20413,1.05204 -1e-5,0.87931 -0.32975,1.59637 -0.98923,2.15117 -0.65949,0.5548 -1.59637,0.8322 -2.81065,0.8322"
         style="fill:#666666"
         id="path4621"
         inkscape:connector-curvature="0" />
      <path
         d="m 470.12352,479.12292 0,-12.84421 2.84205,0 0,3.07758 -0.12561,1.63301 c 0.88977,-0.82696 1.82142,-1.24045 2.79495,-1.24046 1.8947,1e-5 2.84205,1.24047 2.84206,3.72137 l 0,5.65271 -2.85776,0 0,-5.30726 c -1e-5,-0.60714 -0.0838,-1.02586 -0.25123,-1.25616 -0.1675,-0.24076 -0.43966,-0.36114 -0.81651,-0.36115 -0.30357,10e-6 -0.56527,0.0628 -0.78509,0.18843 -0.21984,0.12562 -0.48677,0.33498 -0.80081,0.62807 l 0,6.10807 -2.84205,0"
         style="fill:#666666"
         id="path4623"
         inkscape:connector-curvature="0" />
      <path
         d="m 483.01484,479.34275 c -0.82697,0 -1.48645,-0.26693 -1.97845,-0.8008 -0.49199,-0.53386 -0.73799,-1.19335 -0.73799,-1.97845 0,-0.97352 0.40302,-1.72721 1.20905,-2.26108 0.80603,-0.53386 2.09883,-0.90024 3.87839,-1.09914 -0.0628,-0.78509 -0.5234,-1.17764 -1.38177,-1.17765 -0.64902,1e-5 -1.44982,0.27217 -2.40241,0.8165 l -0.98922,-1.88423 c 1.35037,-0.80603 2.65886,-1.20905 3.92549,-1.20906 2.47044,1e-5 3.70566,1.39225 3.70567,4.17673 l 0,5.19735 -2.32389,0 -0.21983,-0.91071 -0.0628,0 c -0.83744,0.7537 -1.71152,1.13054 -2.62223,1.13054 m 0.98923,-2.21398 c 0.47105,1e-5 0.93164,-0.24076 1.38177,-0.72229 l 0,-1.46028 c -1.58067,0.20936 -2.371,0.67519 -2.371,1.39747 0,0.52341 0.32974,0.78511 0.98923,0.7851"
         style="fill:#666666"
         id="path4625"
         inkscape:connector-curvature="0" />
      <path
         d="m 493.17402,479.34275 c -0.59668,0 -1.21952,-0.11515 -1.86853,-0.34544 -0.63855,-0.24076 -1.18812,-0.5548 -1.64871,-0.94212 l 1.25616,-1.77432 c 0.82696,0.63855 1.60159,0.95782 2.32389,0.95782 0.72229,0 1.08343,-0.24076 1.08344,-0.72229 -10e-6,-0.0733 -0.0157,-0.14132 -0.0471,-0.20413 -0.0314,-0.0733 -0.0838,-0.14131 -0.15702,-0.20413 -0.0733,-0.0628 -0.14656,-0.11514 -0.21983,-0.15702 -0.0628,-0.0523 -0.16226,-0.10467 -0.29834,-0.15701 -0.12562,-0.0628 -0.23553,-0.10992 -0.32974,-0.14132 -0.0837,-0.0419 -0.20936,-0.0942 -0.37684,-0.15702 -0.1675,-0.0628 -0.29835,-0.11515 -0.39255,-0.15702 -1.59114,-0.63854 -2.38671,-1.53356 -2.3867,-2.68504 -10e-6,-0.86884 0.3245,-1.57019 0.97352,-2.10407 0.65948,-0.53385 1.51785,-0.80079 2.57512,-0.8008 1.12007,1e-5 2.20874,0.39256 3.26601,1.17765 l -1.27186,1.69582 c -0.72229,-0.51293 -1.35561,-0.76939 -1.89994,-0.7694 -0.64901,10e-6 -0.97352,0.21983 -0.97352,0.65948 0,0.0733 0.0157,0.14656 0.0471,0.21983 0.0314,0.0628 0.0785,0.12562 0.14132,0.18842 0.0733,0.0523 0.14131,0.0994 0.20412,0.14132 0.0733,0.0419 0.17272,0.089 0.29834,0.14132 0.13608,0.0523 0.24599,0.0994 0.32974,0.14132 0.0837,0.0314 0.20936,0.0785 0.37685,0.14131 0.16748,0.0523 0.29833,0.0942 0.39255,0.12562 0.33497,0.12562 0.62284,0.25647 0.86361,0.39255 0.25122,0.13609 0.50245,0.30881 0.75369,0.51816 0.25123,0.20937 0.44488,0.47107 0.58097,0.7851 0.13608,0.31405 0.20412,0.66472 0.20413,1.05204 -1e-5,0.87931 -0.32975,1.59637 -0.98922,2.15117 -0.65949,0.5548 -1.59638,0.8322 -2.81066,0.8322"
         style="fill:#666666"
         id="path4627"
         inkscape:connector-curvature="0" />
      <path
         d="m 498.63831,479.12292 0,-12.84421 2.84206,0 0,3.07758 -0.12562,1.63301 c 0.88978,-0.82696 1.82143,-1.24045 2.79496,-1.24046 1.89469,1e-5 2.84204,1.24047 2.84205,3.72137 l 0,5.65271 -2.85776,0 0,-5.30726 c 0,-0.60714 -0.0838,-1.02586 -0.25123,-1.25616 -0.16749,-0.24076 -0.43966,-0.36114 -0.8165,-0.36115 -0.30358,10e-6 -0.56528,0.0628 -0.7851,0.18843 -0.21983,0.12562 -0.48677,0.33498 -0.8008,0.62807 l 0,6.10807 -2.84206,0"
         style="fill:#666666"
         id="path4629"
         inkscape:connector-curvature="0" />
      <path
         d="m 509.22144,479.12292 0,-9.15425 2.84206,0 0,9.15425 -2.84206,0 m 1.42888,-10.42611 c -0.48153,10e-6 -0.87931,-0.13607 -1.19335,-0.40825 -0.30357,-0.27216 -0.45535,-0.62283 -0.45535,-1.05203 0,-0.42918 0.15178,-0.77986 0.45535,-1.05204 0.31404,-0.28262 0.71182,-0.42394 1.19335,-0.42395 0.47106,1e-5 0.85838,0.14133 1.16195,0.42395 0.30357,0.27218 0.45535,0.62286 0.45536,1.05204 -1e-5,0.4292 -0.15179,0.77987 -0.45536,1.05203 -0.30357,0.27218 -0.69089,0.40826 -1.16195,0.40825"
         style="fill:#666666"
         id="path4631"
         inkscape:connector-curvature="0" />
      <path
         d="m 514.37169,479.12292 0,-9.15425 2.3239,0 0.18842,1.14625 0.0785,0 c 0.93165,-0.91071 1.90517,-1.36607 2.92057,-1.36608 1.8947,1e-5 2.84205,1.24047 2.84206,3.72137 l 0,5.65271 -2.85776,0 0,-5.30726 c -10e-6,-0.60714 -0.0838,-1.02586 -0.25124,-1.25616 -0.16749,-0.24076 -0.43966,-0.36114 -0.8165,-0.36115 -0.30357,10e-6 -0.56527,0.0628 -0.7851,0.18843 -0.21983,0.12562 -0.48676,0.33498 -0.8008,0.62807 l 0,6.10807 -2.84206,0"
         style="fill:#666666"
         id="path4633"
         inkscape:connector-curvature="0" />
    </g>
    <g
       transform="matrix(0.80434617,0,0,0.80434617,2.6779314,-903.14308)"
       style="font-size:75.22682953px;font-style:normal;font-variant:normal;font-weight:normal;font-stretch:normal;text-align:start;line-height:125%;letter-spacing:0px;word-spacing:0px;writing-mode:lr-tb;text-anchor:start;fill:#ff0066;fill-opacity:1;stroke:#ff0066;stroke-width:3;stroke-linecap:round;stroke-linejoin:round;stroke-miterlimit:4;stroke-opacity:1;filter:url(#filter4360);font-family:Keifont;-inkscape-font-specification:Keifont"
       id="text4516">
      <path
         d="m 310.47333,1651.139 23.0676,8.5218 -4.70167,11.0196 -23.65531,-8.5218 5.28938,-11.0196 m -7.4933,17.1905 23.06761,8.4484 -4.70168,11.093 -23.72878,-8.5218 5.36285,-11.0196 m 10.06453,28.4305 5.28939,4.3343 c 7.00351,-5.2403 13.76216,-10.995 20.27598,-17.2639 6.56271,-6.3179 12.90507,-13.15 19.0271,-20.4964 l 10.21145,9.6238 c -6.90565,7.2484 -13.81123,14.2274 -20.71676,20.9371 -5.24046,5.0935 -10.57882,10.0401 -16.01509,14.8397 -1.76316,1.5182 -3.57526,3.0365 -5.43631,4.5547 -1.81214,1.5183 -3.89361,2.8406 -6.24442,3.9671 l -13.66424,-9.8442 7.2729,-10.6522"
         id="path4603"
         inkscape:connector-curvature="0" />
      <path
         d="m 374.901,1679.0552 12.63575,-1.6896 -3.74664,-10.7257 10.87262,-3.2324 4.40782,12.3419 31.00169,-4.0405 2.64469,6.979 -19.76174,22.4799 -5.50977,-2.3508 6.4648,18.072 -11.68073,2.4243 -11.01955,-31.7363 -15.57431,2.3509 -0.73463,-10.8727 m 39.96425,4.8486 -12.12151,1.8366 3.01201,8.5218 9.1095,-10.3584"
         id="path4605"
         inkscape:connector-curvature="0" />
      <path
         d="m 453.13984,1651.139 23.0676,8.5218 -4.70168,11.0196 -23.65531,-8.5218 5.28939,-11.0196 m -7.4933,17.1905 23.0676,8.4484 -4.70168,11.093 -23.72877,-8.5218 5.36285,-11.0196 m 10.06453,28.4305 5.28938,4.3343 c 7.00351,-5.2403 13.76216,-10.995 20.27598,-17.2639 6.56271,-6.3179 12.90507,-13.15 19.0271,-20.4964 l 10.21146,9.6238 c -6.90566,7.2484 -13.81124,14.2274 -20.71677,20.9371 -5.24046,5.0935 -10.57881,10.0401 -16.01508,14.8397 -1.76317,1.5182 -3.57527,3.0365 -5.43632,4.5547 -1.81213,1.5183 -3.8936,2.8406 -6.24441,3.9671 l -13.66425,-9.8442 7.27291,-10.6522"
         id="path4607"
         inkscape:connector-curvature="0" />
      <path
         d="m 525.13427,1652.3879 23.28799,12.0481 -5.6567,10.8726 -23.36146,-11.093 5.73017,-11.8277 m 1.91006,41.2132 4.70167,4.922 c 7.54225,-4.7506 14.88861,-10.0155 22.03911,-15.7947 7.1994,-5.8281 14.20293,-12.1949 21.01062,-19.1005 l 9.18296,10.9461 c -7.68926,6.7586 -15.30499,13.2479 -22.84721,19.4678 -5.63226,4.7017 -11.4114,9.232 -17.33743,13.5908 -1.91009,1.4693 -3.86912,2.8651 -5.8771,4.1874 -1.95905,1.3224 -4.18745,2.4488 -6.68519,3.3794 l -12.63576,-11.4604 8.44833,-10.1379"
         id="path4609"
         inkscape:connector-curvature="0" />
    </g>
    <g
       style="font-size:60.50841141px;font-style:normal;font-variant:normal;font-weight:normal;font-stretch:normal;text-align:start;line-height:125%;letter-spacing:0px;word-spacing:0px;writing-mode:lr-tb;text-anchor:start;fill:#ff0066;fill-opacity:1;stroke:#ff0066;stroke-width:2.41303849;stroke-linecap:round;stroke-linejoin:round;stroke-miterlimit:4;stroke-opacity:1;font-family:Keifont;-inkscape-font-specification:Keifont"
       id="text4520"
       transform="translate(0,60)">
      <path
         d="m 252.40597,364.94431 18.55434,6.85447 -3.78177,8.86354 -19.02706,-6.85447 4.25449,-8.86354 m -6.0272,13.82712 18.55434,6.79538 -3.78178,8.92263 -19.08615,-6.85447 4.31359,-8.86354 m 8.09536,22.86793 4.2545,3.48632 c 5.63325,-4.21509 11.06954,-8.84382 16.30891,-13.88621 5.27869,-5.08173 10.38014,-10.57712 15.30437,-16.48618 l 8.21355,7.74083 c -5.55454,5.83026 -11.10902,11.44383 -16.66345,16.84072 -4.21515,4.09693 -8.50903,8.07567 -12.88168,11.93623 -1.41819,1.22119 -2.87575,2.44239 -4.37267,3.66359 -1.45759,1.2212 -3.13181,2.28482 -5.02268,3.19087 l -10.99078,-7.91809 5.84993,-8.56808"
         id="path4612"
         inkscape:connector-curvature="0" />
      <path
         d="m 304.22812,387.39861 10.16352,-1.35908 -3.0136,-8.62718 8.74536,-2.59997 3.54541,9.92717 24.93608,-3.24997 2.12725,5.61357 -15.89527,18.08162 -4.43177,-1.89089 5.19994,14.5362 -9.39535,1.94998 -8.86354,-25.52699 -12.52713,1.89089 -0.5909,-8.74535 m 32.14509,3.89995 -9.74989,1.47726 2.4227,6.85447 7.32719,-8.33173"
         id="path4614"
         inkscape:connector-curvature="0" />
      <path
         d="m 367.15923,364.94431 18.55434,6.85447 -3.78178,8.86354 -19.02706,-6.85447 4.2545,-8.86354 m -6.0272,13.82712 18.55433,6.79538 -3.78177,8.92263 -19.08615,-6.85447 4.31359,-8.86354 m 8.09536,22.86793 4.2545,3.48632 c 5.63324,-4.21509 11.06954,-8.84382 16.30891,-13.88621 5.27868,-5.08173 10.38014,-10.57712 15.30437,-16.48618 l 8.21354,7.74083 c -5.55453,5.83026 -11.10901,11.44383 -16.66344,16.84072 -4.21515,4.09693 -8.50903,8.07567 -12.88168,11.93623 -1.41819,1.22119 -2.87575,2.44239 -4.37268,3.66359 -1.45758,1.2212 -3.1318,2.28482 -5.02267,3.19087 l -10.99078,-7.91809 5.84993,-8.56808"
         id="path4616"
         inkscape:connector-curvature="0" />
      <path
         d="m 425.06768,365.94885 18.7316,9.6908 -4.54994,8.74535 -18.7907,-8.92262 4.60904,-9.51353 m 1.53634,33.14962 3.78178,3.95905 c 6.06658,-3.82115 11.97559,-8.05595 17.72707,-12.7044 5.79081,-4.6878 11.42407,-9.80895 16.89981,-15.36347 l 7.38628,8.80445 c -6.18483,5.43633 -12.31051,10.65596 -18.37706,15.65892 -4.53029,3.78178 -9.17872,7.42568 -13.9453,10.93169 -1.53637,1.18181 -3.11211,2.30452 -4.72722,3.36815 -1.57576,1.06362 -3.36816,1.96967 -5.37721,2.71815 l -10.16352,-9.21808 6.79537,-8.15446"
         id="path4618"
         inkscape:connector-curvature="0" />
    </g>
  </g>
</svg>
